<svg width="524" height="393" viewBox="0 0 524 393" fill="none" xmlns="http://www.w3.org/2000/svg">
<path d="M0 19C0 8.50659 8.50659 0 19 0H505C515.493 0 524 8.50659 524 19V374C524 384.493 515.493 393 505 393H19C8.50659 393 0 384.493 0 374V19Z" fill="#030010" fill-opacity="0.75"/>
<path d="M19 0.5H505C515.217 0.5 523.5 8.78273 523.5 19V374C523.5 384.217 515.217 392.5 505 392.5H19C8.78273 392.5 0.5 384.217 0.5 374V19C0.5 8.78273 8.78273 0.500001 19 0.5Z" stroke="white" stroke-opacity="0.1"/>
<line x1="462.5" y1="1" x2="462.5" y2="392" stroke="white" stroke-opacity="0.1"/>
</svg>
