<svg width="22" height="22" viewBox="0 0 22 22" fill="none" xmlns="http://www.w3.org/2000/svg">
<path d="M5.39274 18.9014C5.28802 18.8219 5.20051 18.7214 5.13566 18.606C5.07081 18.4906 5.03 18.363 5.01578 18.2309V16.6982H4.35611C4.04587 16.7013 3.73815 16.6415 3.45094 16.5222C3.16373 16.4029 2.90281 16.2267 2.68343 16.0037C2.46405 15.7807 2.29062 15.5155 2.17329 15.2235C2.05596 14.9316 1.99709 14.6188 2.00011 14.3035V9.03495C1.99709 8.71961 2.05596 8.40682 2.17329 8.11488C2.29062 7.82295 2.46405 7.55773 2.68343 7.33474C2.90281 7.11175 3.16373 6.93547 3.45094 6.81621C3.73815 6.69695 4.04587 6.6371 4.35611 6.64017H13.8743C14.1918 6.63991 14.5061 6.70488 14.7982 6.83118C15.0904 6.95747 15.3544 7.14249 15.5745 7.37511C15.7945 7.60773 15.9661 7.88316 16.0788 8.18485C16.1915 8.48655 16.243 8.80829 16.2303 9.13074V14.3035C16.2327 14.6186 16.1734 14.9311 16.0558 15.2228C15.9383 15.5144 15.7648 15.7794 15.5456 16.0022C15.3263 16.2251 15.0657 16.4014 14.7787 16.5209C14.4918 16.6404 14.1844 16.7007 13.8743 16.6982H8.78537L6.14666 18.8056C5.95818 18.9014 5.86394 18.9972 5.67546 18.9972C5.62429 19.0038 5.57231 18.9986 5.52337 18.9821C5.47443 18.9655 5.42978 18.9379 5.39274 18.9014ZM3.50795 9.13074V14.3992C3.50795 14.6533 3.60724 14.8969 3.78397 15.0766C3.9607 15.2562 4.20041 15.3572 4.45034 15.3572H5.11002C5.48207 15.3664 5.83637 15.5207 6.09953 15.7882C6.36269 16.0557 6.51454 16.4158 6.52362 16.794V16.8898L8.03146 15.6445C8.28015 15.4659 8.57522 15.3659 8.87961 15.3572H13.9686C14.2185 15.3572 14.4582 15.2562 14.6349 15.0766C14.8117 14.8969 14.911 14.6533 14.911 14.3992V9.13074C14.911 8.87669 14.8117 8.63304 14.6349 8.45339C14.4582 8.27375 14.2185 8.17283 13.9686 8.17283H4.45034C4.32465 8.1653 4.19882 8.18492 4.08113 8.2304C3.96343 8.27588 3.85655 8.34618 3.76752 8.43667C3.67849 8.52717 3.60933 8.63581 3.56459 8.75544C3.51984 8.87507 3.50054 9.00298 3.50795 9.13074ZM5.86394 13.9203C5.76269 13.9294 5.66071 13.9158 5.56519 13.8805C5.46966 13.8452 5.38291 13.789 5.31104 13.716C5.23916 13.6429 5.18392 13.5547 5.14919 13.4576C5.11446 13.3605 5.10109 13.2569 5.11002 13.154C5.10902 13.053 5.12783 12.9529 5.16536 12.8595C5.20289 12.7661 5.25838 12.6812 5.32859 12.6098C5.3988 12.5384 5.48232 12.482 5.57424 12.4439C5.66617 12.4057 5.76466 12.3866 5.86394 12.3876H11.2356C11.4356 12.3876 11.6273 12.4684 11.7687 12.6121C11.9101 12.7558 11.9895 12.9507 11.9895 13.154C11.9895 13.3572 11.9101 13.5521 11.7687 13.6958C11.6273 13.8396 11.4356 13.9203 11.2356 13.9203H5.86394ZM16.89 12.3876C16.8885 12.2866 16.9069 12.1862 16.9443 12.0925C16.9816 11.9989 17.0371 11.9138 17.1074 11.8423C17.1777 11.7708 17.2614 11.7144 17.3536 11.6765C17.4458 11.6385 17.5445 11.6198 17.6439 11.6213C17.8939 11.6213 18.1336 11.5204 18.3103 11.3407C18.487 11.1611 18.5863 10.9174 18.5863 10.6634V5.39489C18.5863 5.14083 18.487 4.89719 18.3103 4.71754C18.1336 4.5379 17.8939 4.43698 17.6439 4.43698H8.1257C7.87621 4.43849 7.63737 4.53989 7.46096 4.71921C7.28455 4.89853 7.18478 5.1413 7.1833 5.39489C7.1924 5.49784 7.17915 5.60157 7.14448 5.69875C7.10981 5.79593 7.05457 5.88418 6.98266 5.95727C6.91075 6.03037 6.82392 6.08652 6.72832 6.12176C6.63272 6.157 6.53067 6.17047 6.42938 6.16122C6.33002 6.1625 6.23142 6.14356 6.13938 6.1055C6.04734 6.06745 5.96372 6.01105 5.89346 5.93963C5.8232 5.86821 5.76771 5.78322 5.73027 5.68966C5.69283 5.59611 5.6742 5.49588 5.67546 5.39489C5.67244 5.07955 5.73132 4.76676 5.84865 4.47483C5.96598 4.18289 6.1394 3.91767 6.35878 3.69468C6.57816 3.47169 6.83909 3.29541 7.12629 3.17615C7.4135 3.05689 7.72122 2.99704 8.03146 3.00011H17.5497C18.1903 3.02914 18.7971 3.30085 19.2506 3.76178C19.704 4.22271 19.9713 4.83947 19.9999 5.49068V10.7592C20.0027 11.0745 19.9436 11.3871 19.8262 11.6789C19.7088 11.9708 19.5353 12.2359 19.316 12.4588C19.0967 12.6818 18.8359 12.858 18.5488 12.9774C18.2617 13.0968 17.9541 13.1568 17.6439 13.154C17.5425 13.1639 17.4401 13.1509 17.3442 13.1159C17.2483 13.0809 17.1612 13.0248 17.0891 12.9516C17.0171 12.8783 16.9618 12.7898 16.9274 12.6923C16.893 12.5948 16.8802 12.4907 16.89 12.3876ZM5.7697 11.4297C5.66841 11.439 5.56636 11.4255 5.47076 11.3903C5.37516 11.355 5.28833 11.2989 5.21642 11.2258C5.14452 11.1527 5.08927 11.0644 5.0546 10.9673C5.01993 10.8701 5.00668 10.7664 5.01578 10.6634C5.01386 10.5622 5.03205 10.4617 5.06926 10.3678C5.10647 10.274 5.16193 10.1887 5.23232 10.1172C5.30272 10.0456 5.3866 9.98924 5.47893 9.95142C5.57127 9.9136 5.67017 9.89511 5.7697 9.89707H12.4607C12.5622 9.88712 12.6645 9.90011 12.7604 9.9351C12.8563 9.9701 12.9435 10.0262 13.0155 10.0995C13.0876 10.1727 13.1428 10.2613 13.1772 10.3588C13.2117 10.4563 13.2244 10.5603 13.2146 10.6634C13.2163 10.7645 13.1979 10.8649 13.1606 10.9586C13.1233 11.0524 13.0679 11.1375 12.9975 11.209C12.9272 11.2805 12.8434 11.3369 12.7512 11.3748C12.659 11.4127 12.5602 11.4314 12.4607 11.4297H5.7697Z" fill="white"/>
</svg>
