<svg width="22" height="22" viewBox="0 0 22 22" fill="none" xmlns="http://www.w3.org/2000/svg">
<path d="M18.3176 17.875H4.35682C3.65314 17.8743 2.97847 17.5945 2.48081 17.097C1.98315 16.5995 1.70312 15.9249 1.70215 15.2212V6.77875C1.70288 6.07515 1.9827 5.40059 2.48022 4.90307C2.97773 4.40555 3.6523 4.12573 4.3559 4.125H18.3176C19.0213 4.12573 19.696 4.40552 20.1937 4.90301C20.6913 5.4005 20.9713 6.07507 20.9723 6.77875V15.2212C20.9713 15.9249 20.6913 16.5995 20.1937 17.097C19.696 17.5945 19.0213 17.8743 18.3176 17.875ZM4.35682 5.357C3.97957 5.357 3.61776 5.50673 3.35084 5.77331C3.08392 6.03989 2.93372 6.40151 2.93323 6.77875V15.2212C2.93372 15.5981 3.08369 15.9593 3.35024 16.2257C3.6168 16.4921 3.97814 16.6418 4.35498 16.6421H18.3167C18.6937 16.6421 19.0553 16.4924 19.3221 16.226C19.5888 15.9596 19.7389 15.5982 19.7394 15.2212V6.77875C19.7387 6.40183 19.5885 6.04058 19.3218 5.77423C19.0551 5.50787 18.6937 5.35816 18.3167 5.35792H4.35682V5.357Z" fill="white"/>
<path d="M14.7611 14.5237H7.83748C7.6741 14.5237 7.51742 14.4588 7.4019 14.3433C7.28638 14.2277 7.22148 14.0711 7.22148 13.9077C7.22148 13.7443 7.28638 13.5876 7.4019 13.4721C7.51742 13.3566 7.6741 13.2917 7.83748 13.2917H14.762C14.9254 13.2917 15.082 13.3566 15.1976 13.4721C15.3131 13.5876 15.378 13.7443 15.378 13.9077C15.378 14.0711 15.3131 14.2277 15.1976 14.3433C15.082 14.4588 14.9254 14.5237 14.762 14.5237H14.7611ZM7.83748 8.88068H5.74198C5.5786 8.88068 5.42192 8.81578 5.3064 8.70026C5.19088 8.58474 5.12598 8.42805 5.12598 8.26468C5.12598 8.10131 5.19088 7.94463 5.3064 7.8291C5.42192 7.71358 5.5786 7.64868 5.74198 7.64868H7.83748C8.00085 7.64868 8.15753 7.71358 8.27305 7.8291C8.38858 7.94463 8.45348 8.10131 8.45348 8.26468C8.45348 8.42805 8.38858 8.58474 8.27305 8.70026C8.15753 8.81578 8.00085 8.88068 7.83748 8.88068ZM7.83748 11.6903H5.74198C5.5786 11.6903 5.42192 11.6254 5.3064 11.5098C5.19088 11.3943 5.12598 11.2376 5.12598 11.0743C5.12598 10.9109 5.19088 10.7542 5.3064 10.6387C5.42192 10.5232 5.5786 10.4583 5.74198 10.4583H7.83748C8.00085 10.4583 8.15753 10.5232 8.27305 10.6387C8.38858 10.7542 8.45348 10.9109 8.45348 11.0743C8.45348 11.2376 8.38858 11.3943 8.27305 11.5098C8.15753 11.6254 8.00085 11.6903 7.83748 11.6903ZM12.3475 8.88068H10.2529C10.0895 8.88068 9.93284 8.81578 9.81732 8.70026C9.70179 8.58474 9.63689 8.42805 9.63689 8.26468C9.63689 8.10131 9.70179 7.94463 9.81732 7.8291C9.93284 7.71358 10.0895 7.64868 10.2529 7.64868H12.3475C12.5109 7.64868 12.6675 7.71358 12.7831 7.8291C12.8986 7.94463 12.9635 8.10131 12.9635 8.26468C12.9635 8.42805 12.8986 8.58474 12.7831 8.70026C12.6675 8.81578 12.5109 8.88068 12.3475 8.88068ZM12.3475 11.6903H10.2529C10.0895 11.6903 9.93284 11.6254 9.81732 11.5098C9.70179 11.3943 9.63689 11.2376 9.63689 11.0743C9.63689 10.9109 9.70179 10.7542 9.81732 10.6387C9.93284 10.5232 10.0895 10.4583 10.2529 10.4583H12.3475C12.5109 10.4583 12.6675 10.5232 12.7831 10.6387C12.8986 10.7542 12.9635 10.9109 12.9635 11.0743C12.9635 11.2376 12.8986 11.3943 12.7831 11.5098C12.6675 11.6254 12.5109 11.6903 12.3475 11.6903ZM16.8575 8.88068H14.762C14.5986 8.88068 14.4419 8.81578 14.3264 8.70026C14.2109 8.58474 14.146 8.42805 14.146 8.26468C14.146 8.10131 14.2109 7.94463 14.3264 7.8291C14.4419 7.71358 14.5986 7.64868 14.762 7.64868H16.8566C17.0199 7.64868 17.1766 7.71358 17.2921 7.8291C17.4077 7.94463 17.4726 8.10131 17.4726 8.26468C17.4726 8.42805 17.4077 8.58474 17.2921 8.70026C17.1766 8.81578 17.0199 8.88068 16.8566 8.88068H16.8575ZM16.8575 11.6903H14.762C14.5986 11.6903 14.4419 11.6254 14.3264 11.5098C14.2109 11.3943 14.146 11.2376 14.146 11.0743C14.146 10.9109 14.2109 10.7542 14.3264 10.6387C14.4419 10.5232 14.5986 10.4583 14.762 10.4583H16.8566C17.0199 10.4583 17.1766 10.5232 17.2921 10.6387C17.4077 10.7542 17.4726 10.9109 17.4726 11.0743C17.4726 11.2376 17.4077 11.3943 17.2921 11.5098C17.1766 11.6254 17.0199 11.6903 16.8566 11.6903H16.8575Z" fill="white"/>
</svg>
