<svg width="22" height="22" viewBox="0 0 22 22" fill="none" xmlns="http://www.w3.org/2000/svg">
<path d="M16.7273 12.6C16.0727 12.6 15.4182 12.76 14.9273 13.16L12.1455 10.36L18.1182 4.36C18.4455 4.04 18.4455 3.56 18.1182 3.24C17.7909 2.92 17.3 2.92 16.9727 3.24L11 9.16L5.02727 3.24C4.7 2.92 4.20909 2.92 3.88182 3.24C3.55455 3.56 3.55455 4.04 3.88182 4.36L9.85455 10.36L7.07273 13.16C6.58182 12.76 5.92727 12.6 5.27273 12.6C3.47273 12.6 2 14.04 2 15.8C2 17.56 3.47273 19 5.27273 19C7.07273 19 8.54545 17.56 8.54545 15.8C8.54545 15.24 8.38182 14.76 8.13636 14.28L11 11.48L13.8636 14.28C13.6182 14.76 13.4545 15.24 13.4545 15.8C13.4545 17.56 14.9273 19 16.7273 19C18.5273 19 20 17.56 20 15.8C20 14.04 18.5273 12.6 16.7273 12.6ZM5.27273 17.4C4.37273 17.4 3.63636 16.68 3.63636 15.8C3.63636 14.92 4.37273 14.2 5.27273 14.2C6.17273 14.2 6.90909 14.92 6.90909 15.8C6.90909 16.68 6.17273 17.4 5.27273 17.4ZM16.7273 17.4C15.8273 17.4 15.0909 16.68 15.0909 15.8C15.0909 14.92 15.8273 14.2 16.7273 14.2C17.6273 14.2 18.3636 14.92 18.3636 15.8C18.3636 16.68 17.6273 17.4 16.7273 17.4Z" fill="white"/>
</svg>
