<svg width="22" height="22" viewBox="0 0 22 22" fill="none" xmlns="http://www.w3.org/2000/svg">
<path d="M12.6111 11.5808C12.6111 12.7323 11.6515 13.6919 10.5 13.6919C9.34848 13.6919 8.38889 12.7323 8.38889 11.5808C8.38889 10.4293 9.34848 9.46971 10.5 9.46971C11.0758 9.46971 11.6515 9.66163 12.0354 10.1414C12.4192 10.4293 12.6111 11.0051 12.6111 11.5808ZM10.5 7.93436C8.48485 7.93436 6.85354 9.56567 6.85354 11.5808C6.85354 13.596 8.48485 15.2273 10.5 15.2273C12.5152 15.2273 14.1465 13.596 14.1465 11.5808C14.1465 9.56567 12.5152 7.93436 10.5 7.93436ZM18.3687 11.5808C18.0808 12.5404 17.601 13.4041 17.0253 14.2677C16.3535 15.0354 15.5859 15.7071 14.6263 16.1869C13.2828 16.7626 11.9394 17.1465 10.5 17.0505C9.06061 17.0505 7.62121 16.7626 6.37374 16.1869C5.41414 15.7071 4.64646 15.0354 3.97475 14.2677C3.30303 13.4041 2.82323 12.5404 2.53535 11.5808C2.82323 10.6212 3.30303 9.66163 3.87879 8.89396C4.55051 8.12628 5.31818 7.45456 6.27778 6.97476C7.62121 6.39901 8.96465 6.01517 10.5 6.11113C11.9394 6.11113 13.3788 6.39901 14.6263 6.97476C15.5859 7.45456 16.3535 8.12628 17.0253 8.89396C17.601 9.75759 18.0808 10.6212 18.3687 11.5808ZM20 11.5808C19.904 11.101 19.7121 10.7172 19.5202 10.2374C19.2323 9.46971 18.7525 8.70204 18.2727 8.03032C17.5051 7.07072 16.5455 6.20709 15.3939 5.72729C13.8586 4.95961 12.1313 4.57578 10.5 4.57578C8.86869 4.57578 7.14141 4.86365 5.70202 5.63133C4.55051 6.20709 3.59091 6.97476 2.82323 7.93436C2.24747 8.60608 1.86364 9.37375 1.4798 10.2374C1.28788 10.7172 1.09596 11.101 1 11.5808C1.09596 12.0606 1.28788 12.4445 1.4798 12.9243C1.76768 13.6919 2.24747 14.4596 2.82323 15.2273C3.59091 16.1869 4.64646 17.0505 5.70202 17.6263C7.23737 18.394 8.86869 18.6818 10.5 18.6818C12.2273 18.6818 13.8586 18.394 15.3939 17.6263C16.5455 17.0505 17.5051 16.2828 18.2727 15.3232C18.8485 14.6515 19.2323 13.8839 19.6162 13.0202C19.7121 12.4445 19.904 12.0606 20 11.5808Z" fill="white"/>
<path d="M3.8784 4.28788C4.26224 3.90404 4.74204 3.90404 5.12588 4.28788L18.0804 17.2424C18.4643 17.6263 18.4643 18.1061 18.0804 18.4899C17.6966 18.8737 17.2168 18.8737 16.8329 18.4899L3.8784 5.53535C3.39861 5.15152 3.39861 4.67172 3.8784 4.28788Z" fill="white"/>
</svg>
