<svg width="12" height="12" viewBox="0 0 12 12" fill="none" xmlns="http://www.w3.org/2000/svg">
<g clip-path="url(#clip0_165_1072)">
<path d="M5.97529 0.7547C3.08545 0.7547 0.741699 3.09845 0.741699 5.98829C0.741699 8.87814 3.08428 11.2219 5.97529 11.2219C8.86631 11.2219 11.2089 8.87931 11.2089 5.98829C11.2089 3.09845 8.86631 0.7547 5.97529 0.7547ZM7.34756 6.51915H5.8874C5.59443 6.51915 5.35654 6.28126 5.35654 5.98829V3.21447C5.35654 2.9215 5.59443 2.68361 5.8874 2.68361C6.18037 2.68361 6.41826 2.9215 6.41826 3.21447V5.45861H7.34756C7.64053 5.45861 7.87842 5.6965 7.87842 5.98947C7.87842 6.28243 7.64053 6.51915 7.34756 6.51915Z" fill="white" fill-opacity="0.4"/>
</g>
<defs>
<clipPath id="clip0_165_1072">
<rect width="12" height="12" fill="white"/>
</clipPath>
</defs>
</svg>
